<svg xmlns="http://www.w3.org/2000/svg" xmlns:xlink="http://www.w3.org/1999/xlink" width="1500" zoomAndPan="magnify" viewBox="0 0 1125 374.999991" height="500" preserveAspectRatio="xMidYMid meet" version="1.0"><defs><g/><clipPath id="328004d008"><path d="M 960.226562 116.117188 L 1081.726562 116.117188 L 1081.726562 237.617188 L 960.226562 237.617188 Z M 960.226562 116.117188 " clip-rule="nonzero"/></clipPath></defs><g clip-path="url(#328004d008)"><path fill="#46cc6b" d="M 1081.722656 176.886719 C 1081.722656 210.414062 1054.539062 237.597656 1021.011719 237.597656 C 1016.582031 237.601562 1012.203125 237.128906 1007.878906 236.171875 C 1003.554688 235.21875 999.386719 233.804688 995.371094 231.933594 C 992.949219 230.800781 990.40625 230.070312 987.753906 229.746094 C 985.097656 229.421875 982.457031 229.515625 979.832031 230.03125 L 970.351562 231.898438 C 966.335938 232.6875 963.210938 228.457031 965.144531 224.847656 C 968.890625 217.863281 969.191406 209.511719 965.867188 202.3125 C 964.039062 198.351562 962.652344 194.238281 961.714844 189.972656 C 960.777344 185.710938 960.304688 181.398438 960.300781 177.03125 C 960.222656 143.472656 987.363281 116.222656 1020.921875 116.175781 C 1054.492188 116.125 1081.722656 143.328125 1081.722656 176.886719 Z M 1081.722656 176.886719 " fill-opacity="1" fill-rule="nonzero"/></g><path fill="#ffffff" d="M 1072.980469 176.886719 C 1072.980469 178.585938 1072.898438 180.285156 1072.730469 181.980469 C 1072.5625 183.671875 1072.3125 185.355469 1071.980469 187.023438 C 1071.648438 188.695312 1071.234375 190.34375 1070.742188 191.972656 C 1070.25 193.601562 1069.675781 195.199219 1069.023438 196.773438 C 1068.371094 198.347656 1067.644531 199.882812 1066.84375 201.382812 C 1066.042969 202.882812 1065.167969 204.34375 1064.222656 205.757812 C 1063.277344 207.171875 1062.261719 208.539062 1061.183594 209.855469 C 1060.105469 211.171875 1058.960938 212.429688 1057.757812 213.632812 C 1056.554688 214.835938 1055.296875 215.976562 1053.980469 217.058594 C 1052.664062 218.136719 1051.296875 219.152344 1049.882812 220.097656 C 1048.46875 221.042969 1047.011719 221.914062 1045.507812 222.71875 C 1044.007812 223.519531 1042.472656 224.246094 1040.898438 224.898438 C 1039.328125 225.550781 1037.726562 226.121094 1036.097656 226.617188 C 1034.46875 227.109375 1032.820312 227.523438 1031.148438 227.855469 C 1029.480469 228.1875 1027.800781 228.4375 1026.105469 228.605469 C 1024.410156 228.769531 1022.714844 228.855469 1021.011719 228.855469 C 1019.308594 228.855469 1017.613281 228.769531 1015.917969 228.605469 C 1014.222656 228.4375 1012.542969 228.1875 1010.871094 227.855469 C 1009.203125 227.523438 1007.554688 227.109375 1005.925781 226.617188 C 1004.296875 226.121094 1002.695312 225.550781 1001.125 224.898438 C 999.550781 224.246094 998.015625 223.519531 996.511719 222.71875 C 995.011719 221.914062 993.554688 221.042969 992.140625 220.097656 C 990.722656 219.152344 989.359375 218.136719 988.042969 217.058594 C 986.726562 215.976562 985.46875 214.835938 984.265625 213.632812 C 983.058594 212.429688 981.917969 211.171875 980.839844 209.855469 C 979.757812 208.539062 978.746094 207.171875 977.800781 205.757812 C 976.855469 204.34375 975.980469 202.882812 975.179688 201.382812 C 974.375 199.882812 973.648438 198.347656 973 196.773438 C 972.347656 195.199219 971.773438 193.601562 971.28125 191.972656 C 970.785156 190.34375 970.375 188.695312 970.042969 187.023438 C 969.710938 185.355469 969.460938 183.671875 969.292969 181.980469 C 969.125 180.285156 969.042969 178.585938 969.042969 176.886719 C 969.042969 175.183594 969.125 173.484375 969.292969 171.792969 C 969.460938 170.097656 969.710938 168.417969 970.042969 166.746094 C 970.375 165.078125 970.785156 163.429688 971.28125 161.800781 C 971.773438 160.171875 972.347656 158.570312 973 157 C 973.648438 155.425781 974.375 153.890625 975.179688 152.386719 C 975.980469 150.886719 976.855469 149.429688 977.800781 148.011719 C 978.746094 146.597656 979.757812 145.234375 980.839844 143.917969 C 981.917969 142.601562 983.058594 141.34375 984.265625 140.136719 C 985.46875 138.933594 986.726562 137.792969 988.042969 136.714844 C 989.359375 135.632812 990.722656 134.621094 992.140625 133.675781 C 993.554688 132.730469 995.011719 131.855469 996.511719 131.054688 C 998.015625 130.25 999.550781 129.523438 1001.125 128.875 C 1002.695312 128.222656 1004.296875 127.648438 1005.925781 127.15625 C 1007.554688 126.660156 1009.203125 126.246094 1010.871094 125.914062 C 1012.542969 125.582031 1014.222656 125.335938 1015.917969 125.167969 C 1017.613281 125 1019.308594 124.917969 1021.011719 124.917969 C 1022.714844 124.917969 1024.410156 125 1026.105469 125.167969 C 1027.800781 125.335938 1029.480469 125.582031 1031.148438 125.914062 C 1032.820312 126.246094 1034.46875 126.660156 1036.097656 127.15625 C 1037.726562 127.648438 1039.328125 128.222656 1040.898438 128.875 C 1042.472656 129.523438 1044.007812 130.25 1045.507812 131.054688 C 1047.011719 131.855469 1048.46875 132.730469 1049.882812 133.675781 C 1051.296875 134.621094 1052.664062 135.632812 1053.980469 136.714844 C 1055.296875 137.792969 1056.554688 138.933594 1057.757812 140.136719 C 1058.960938 141.34375 1060.105469 142.601562 1061.183594 143.917969 C 1062.261719 145.234375 1063.277344 146.597656 1064.222656 148.011719 C 1065.167969 149.429688 1066.042969 150.886719 1066.84375 152.386719 C 1067.644531 153.890625 1068.371094 155.425781 1069.023438 157 C 1069.675781 158.570312 1070.25 160.171875 1070.742188 161.800781 C 1071.234375 163.429688 1071.648438 165.078125 1071.980469 166.746094 C 1072.3125 168.417969 1072.5625 170.097656 1072.730469 171.792969 C 1072.898438 173.484375 1072.980469 175.183594 1072.980469 176.886719 Z M 1072.980469 176.886719 " fill-opacity="1" fill-rule="nonzero"/><path fill="#46cc6b" d="M 1063.699219 176.886719 C 1063.699219 178.285156 1063.632812 179.679688 1063.496094 181.070312 C 1063.355469 182.460938 1063.152344 183.84375 1062.878906 185.214844 C 1062.605469 186.585938 1062.265625 187.941406 1061.863281 189.277344 C 1061.457031 190.617188 1060.984375 191.929688 1060.449219 193.222656 C 1059.914062 194.511719 1059.316406 195.777344 1058.660156 197.007812 C 1058 198.242188 1057.28125 199.441406 1056.503906 200.601562 C 1055.730469 201.765625 1054.898438 202.886719 1054.011719 203.96875 C 1053.125 205.046875 1052.183594 206.082031 1051.195312 207.070312 C 1050.207031 208.058594 1049.171875 208.996094 1048.09375 209.882812 C 1047.011719 210.769531 1045.890625 211.601562 1044.726562 212.378906 C 1043.566406 213.15625 1042.367188 213.875 1041.132812 214.535156 C 1039.902344 215.191406 1038.640625 215.789062 1037.347656 216.324219 C 1036.054688 216.859375 1034.742188 217.332031 1033.402344 217.734375 C 1032.066406 218.140625 1030.710938 218.480469 1029.339844 218.753906 C 1027.96875 219.027344 1026.585938 219.230469 1025.195312 219.367188 C 1023.804688 219.503906 1022.410156 219.574219 1021.011719 219.574219 C 1019.613281 219.574219 1018.21875 219.503906 1016.828125 219.367188 C 1015.4375 219.230469 1014.054688 219.027344 1012.683594 218.753906 C 1011.3125 218.480469 1009.957031 218.140625 1008.621094 217.734375 C 1007.28125 217.332031 1005.96875 216.859375 1004.675781 216.324219 C 1003.382812 215.789062 1002.121094 215.191406 1000.886719 214.535156 C 999.65625 213.875 998.457031 213.15625 997.292969 212.378906 C 996.132812 211.601562 995.011719 210.769531 993.929688 209.882812 C 992.847656 208.996094 991.816406 208.058594 990.824219 207.070312 C 989.835938 206.082031 988.898438 205.046875 988.011719 203.96875 C 987.125 202.886719 986.292969 201.765625 985.515625 200.601562 C 984.742188 199.441406 984.023438 198.242188 983.363281 197.007812 C 982.703125 195.777344 982.105469 194.511719 981.574219 193.222656 C 981.039062 191.929688 980.566406 190.617188 980.160156 189.277344 C 979.753906 187.941406 979.414062 186.585938 979.144531 185.214844 C 978.871094 183.84375 978.664062 182.460938 978.527344 181.070312 C 978.390625 179.679688 978.324219 178.285156 978.324219 176.886719 C 978.324219 175.488281 978.390625 174.09375 978.527344 172.703125 C 978.664062 171.308594 978.871094 169.929688 979.144531 168.558594 C 979.414062 167.1875 979.753906 165.832031 980.160156 164.492188 C 980.566406 163.15625 981.039062 161.839844 981.574219 160.550781 C 982.105469 159.257812 982.703125 157.996094 983.363281 156.761719 C 984.023438 155.53125 984.742188 154.332031 985.515625 153.167969 C 986.292969 152.007812 987.125 150.886719 988.011719 149.804688 C 988.898438 148.722656 989.835938 147.6875 990.824219 146.699219 C 991.816406 145.710938 992.847656 144.773438 993.929688 143.886719 C 995.011719 143 996.132812 142.167969 997.292969 141.390625 C 998.457031 140.613281 999.65625 139.898438 1000.886719 139.238281 C 1002.121094 138.578125 1003.382812 137.980469 1004.675781 137.445312 C 1005.96875 136.910156 1007.28125 136.441406 1008.621094 136.035156 C 1009.957031 135.628906 1011.3125 135.289062 1012.683594 135.015625 C 1014.054688 134.746094 1015.4375 134.539062 1016.828125 134.402344 C 1018.21875 134.265625 1019.613281 134.199219 1021.011719 134.199219 C 1022.410156 134.199219 1023.804688 134.265625 1025.195312 134.402344 C 1026.585938 134.539062 1027.96875 134.746094 1029.339844 135.015625 C 1030.710938 135.289062 1032.066406 135.628906 1033.402344 136.035156 C 1034.742188 136.441406 1036.054688 136.910156 1037.347656 137.445312 C 1038.640625 137.980469 1039.902344 138.578125 1041.132812 139.238281 C 1042.367188 139.898438 1043.566406 140.613281 1044.726562 141.390625 C 1045.890625 142.167969 1047.011719 143 1048.09375 143.886719 C 1049.171875 144.773438 1050.207031 145.710938 1051.195312 146.699219 C 1052.183594 147.6875 1053.125 148.722656 1054.011719 149.804688 C 1054.898438 150.886719 1055.730469 152.007812 1056.503906 153.167969 C 1057.28125 154.332031 1058 155.53125 1058.660156 156.761719 C 1059.316406 157.996094 1059.914062 159.257812 1060.449219 160.550781 C 1060.984375 161.839844 1061.457031 163.15625 1061.863281 164.492188 C 1062.265625 165.832031 1062.605469 167.1875 1062.878906 168.558594 C 1063.152344 169.929688 1063.355469 171.308594 1063.496094 172.703125 C 1063.632812 174.09375 1063.699219 175.488281 1063.699219 176.886719 Z M 1063.699219 176.886719 " fill-opacity="1" fill-rule="nonzero"/><path fill="#ffffff" d="M 1014.753906 167.304688 L 1012.597656 160.859375 C 1012.476562 160.492188 1012.316406 160.140625 1012.117188 159.808594 C 1011.921875 159.472656 1011.691406 159.164062 1011.425781 158.878906 C 1011.164062 158.59375 1010.875 158.339844 1010.558594 158.113281 C 1010.242188 157.890625 1009.90625 157.699219 1009.550781 157.546875 C 1009.191406 157.394531 1008.824219 157.28125 1008.441406 157.203125 C 1008.0625 157.128906 1007.679688 157.09375 1007.289062 157.101562 C 1006.902344 157.105469 1006.519531 157.152344 1006.140625 157.238281 C 1005.761719 157.328125 1005.398438 157.453125 1005.046875 157.617188 L 1001.566406 159.238281 C 1001 159.5 1000.492188 159.851562 1000.046875 160.289062 C 999.597656 160.726562 999.234375 161.226562 998.957031 161.785156 C 998.679688 162.34375 998.503906 162.9375 998.425781 163.558594 C 998.347656 164.175781 998.378906 164.792969 998.511719 165.40625 C 1000.6875 175.476562 1008.691406 199.589844 1035.722656 202.597656 C 1036.257812 202.65625 1036.792969 202.640625 1037.320312 202.542969 C 1037.851562 202.445312 1038.359375 202.273438 1038.839844 202.027344 C 1039.320312 201.78125 1039.753906 201.472656 1040.144531 201.101562 C 1040.535156 200.726562 1040.863281 200.304688 1041.128906 199.835938 L 1042.921875 196.664062 C 1043.101562 196.351562 1043.246094 196.023438 1043.359375 195.679688 C 1043.472656 195.335938 1043.550781 194.984375 1043.597656 194.625 C 1043.640625 194.265625 1043.648438 193.90625 1043.621094 193.542969 C 1043.597656 193.183594 1043.535156 192.828125 1043.4375 192.480469 C 1043.339844 192.132812 1043.210938 191.796875 1043.046875 191.472656 C 1042.886719 191.148438 1042.691406 190.84375 1042.46875 190.558594 C 1042.246094 190.273438 1042 190.015625 1041.726562 189.777344 C 1041.453125 189.542969 1041.15625 189.335938 1040.84375 189.15625 L 1040.804688 189.136719 L 1035.988281 186.457031 C 1035.464844 186.167969 1034.910156 185.96875 1034.324219 185.859375 C 1033.738281 185.75 1033.148438 185.734375 1032.558594 185.816406 C 1031.96875 185.898438 1031.40625 186.070312 1030.871094 186.332031 C 1030.335938 186.597656 1029.855469 186.941406 1029.433594 187.359375 C 1029.011719 187.777344 1028.535156 188.121094 1028.003906 188.382812 C 1027.472656 188.648438 1026.914062 188.820312 1026.328125 188.90625 C 1025.738281 188.988281 1025.15625 188.976562 1024.570312 188.871094 C 1023.988281 188.765625 1023.4375 188.570312 1022.914062 188.285156 C 1019.988281 186.675781 1015.972656 183.929688 1013.15625 179.875 C 1012.839844 179.421875 1012.597656 178.929688 1012.429688 178.402344 C 1012.257812 177.875 1012.171875 177.335938 1012.164062 176.78125 C 1012.15625 176.226562 1012.234375 175.683594 1012.390625 175.152344 C 1012.546875 174.621094 1012.777344 174.125 1013.082031 173.660156 L 1014.121094 172.105469 C 1014.589844 171.398438 1014.882812 170.621094 1014.992188 169.777344 C 1015.105469 168.933594 1015.027344 168.109375 1014.757812 167.304688 Z M 1014.753906 167.304688 " fill-opacity="1" fill-rule="nonzero"/><g fill="#000000" fill-opacity="1"><g transform="translate(35.806363, 217.974036)"><g><path d="M 6.71875 0 L 6.71875 -74.59375 L 22.171875 -74.59375 L 22.171875 -44.65625 L 56.484375 -44.65625 L 56.484375 -74.59375 L 71.9375 -74.59375 L 71.9375 0 L 56.484375 0 L 56.484375 -30.484375 L 22.171875 -30.484375 L 22.171875 0 Z M 6.71875 0 "/></g></g></g><g fill="#000000" fill-opacity="1"><g transform="translate(114.5509, 217.974036)"><g><path d="M 3.203125 -27.703125 C 3.203125 -31.753906 3.960938 -35.535156 5.484375 -39.046875 C 7.015625 -42.566406 9.109375 -45.625 11.765625 -48.21875 C 14.429688 -50.8125 17.578125 -52.851562 21.203125 -54.34375 C 24.828125 -55.832031 28.703125 -56.578125 32.828125 -56.578125 C 36.941406 -56.578125 40.8125 -55.832031 44.4375 -54.34375 C 48.0625 -52.851562 51.203125 -50.8125 53.859375 -48.21875 C 56.523438 -45.625 58.625 -42.566406 60.15625 -39.046875 C 61.6875 -35.535156 62.453125 -31.753906 62.453125 -27.703125 C 62.453125 -23.648438 61.6875 -19.863281 60.15625 -16.34375 C 58.625 -12.832031 56.523438 -9.796875 53.859375 -7.234375 C 51.203125 -4.679688 48.0625 -2.660156 44.4375 -1.171875 C 40.8125 0.316406 36.941406 1.0625 32.828125 1.0625 C 28.703125 1.0625 24.828125 0.316406 21.203125 -1.171875 C 17.578125 -2.660156 14.429688 -4.679688 11.765625 -7.234375 C 9.109375 -9.796875 7.015625 -12.832031 5.484375 -16.34375 C 3.960938 -19.863281 3.203125 -23.648438 3.203125 -27.703125 Z M 32.828125 -11.609375 C 37.085938 -11.609375 40.707031 -13.171875 43.6875 -16.296875 C 46.675781 -19.429688 48.171875 -23.234375 48.171875 -27.703125 C 48.171875 -32.253906 46.675781 -36.09375 43.6875 -39.21875 C 40.707031 -42.34375 37.085938 -43.90625 32.828125 -43.90625 C 28.554688 -43.90625 24.925781 -42.34375 21.9375 -39.21875 C 18.957031 -36.09375 17.46875 -32.253906 17.46875 -27.703125 C 17.46875 -23.234375 18.957031 -19.429688 21.9375 -16.296875 C 24.925781 -13.171875 28.554688 -11.609375 32.828125 -11.609375 Z M 32.828125 -11.609375 "/></g></g></g><g fill="#000000" fill-opacity="1"><g transform="translate(180.189128, 217.974036)"><g><path d="M 13.328125 -15.671875 L 13.328125 -43.265625 L 1.921875 -43.265625 L 1.921875 -55.515625 L 13.328125 -55.515625 L 13.328125 -69.6875 L 27.921875 -73 L 27.921875 -55.515625 L 43.6875 -55.515625 L 43.6875 -43.265625 L 27.921875 -43.265625 L 27.921875 -18.65625 C 27.921875 -16.019531 28.488281 -14.171875 29.625 -13.109375 C 30.757812 -12.046875 32.75 -11.515625 35.59375 -11.515625 C 36.9375 -11.515625 38.210938 -11.601562 39.421875 -11.78125 C 40.628906 -11.957031 41.945312 -12.289062 43.375 -12.78125 L 43.375 -0.859375 C 41.8125 -0.359375 39.925781 0.0507812 37.71875 0.375 C 35.519531 0.695312 33.640625 0.859375 32.078125 0.859375 C 25.890625 0.859375 21.21875 -0.539062 18.0625 -3.34375 C 14.90625 -6.15625 13.328125 -10.265625 13.328125 -15.671875 Z M 13.328125 -15.671875 "/></g></g></g><g fill="#000000" fill-opacity="1"><g transform="translate(225.368696, 217.974036)"><g><path d="M 1.0625 -6.609375 L 8.3125 -16.296875 C 11.582031 -14.171875 14.671875 -12.59375 17.578125 -11.5625 C 20.492188 -10.53125 23.410156 -10.015625 26.328125 -10.015625 C 29.585938 -10.015625 32.191406 -10.546875 34.140625 -11.609375 C 36.097656 -12.679688 37.078125 -14.101562 37.078125 -15.875 C 37.078125 -17.300781 36.523438 -18.4375 35.421875 -19.28125 C 34.328125 -20.132812 32.570312 -20.738281 30.15625 -21.09375 L 19.5 -22.703125 C 14.03125 -23.554688 9.859375 -25.332031 6.984375 -28.03125 C 4.109375 -30.726562 2.671875 -34.3125 2.671875 -38.78125 C 2.671875 -44.113281 4.765625 -48.378906 8.953125 -51.578125 C 13.140625 -54.773438 18.75 -56.375 25.78125 -56.375 C 29.832031 -56.375 33.773438 -55.785156 37.609375 -54.609375 C 41.453125 -53.441406 45.113281 -51.71875 48.59375 -49.4375 L 41.5625 -40.0625 C 38.507812 -41.84375 35.597656 -43.175781 32.828125 -44.0625 C 30.054688 -44.945312 27.25 -45.390625 24.40625 -45.390625 C 21.769531 -45.390625 19.65625 -44.890625 18.0625 -43.890625 C 16.46875 -42.898438 15.671875 -41.59375 15.671875 -39.96875 C 15.671875 -38.46875 16.253906 -37.304688 17.421875 -36.484375 C 18.597656 -35.671875 20.535156 -35.085938 23.234375 -34.734375 L 33.890625 -33.140625 C 39.285156 -32.359375 43.457031 -30.582031 46.40625 -27.8125 C 49.351562 -25.039062 50.828125 -21.523438 50.828125 -17.265625 C 50.828125 -14.640625 50.203125 -12.207031 48.953125 -9.96875 C 47.710938 -7.726562 46.023438 -5.789062 43.890625 -4.15625 C 41.765625 -2.519531 39.207031 -1.238281 36.21875 -0.3125 C 33.238281 0.601562 30.007812 1.0625 26.53125 1.0625 C 21.488281 1.0625 16.765625 0.40625 12.359375 -0.90625 C 7.953125 -2.21875 4.1875 -4.117188 1.0625 -6.609375 Z M 1.0625 -6.609375 "/></g></g></g><g fill="#000000" fill-opacity="1"><g transform="translate(277.687436, 217.974036)"><g><path d="M 5.75 22.265625 L 5.75 -55.515625 L 20.140625 -55.515625 L 20.140625 -50.9375 C 22.335938 -52.707031 24.785156 -54.035156 27.484375 -54.921875 C 30.191406 -55.816406 33 -56.265625 35.90625 -56.265625 C 39.8125 -56.265625 43.488281 -55.519531 46.9375 -54.03125 C 50.382812 -52.539062 53.382812 -50.515625 55.9375 -47.953125 C 58.5 -45.390625 60.507812 -42.367188 61.96875 -38.890625 C 63.425781 -35.410156 64.15625 -31.679688 64.15625 -27.703125 C 64.15625 -23.722656 63.40625 -19.992188 61.90625 -16.515625 C 60.414062 -13.035156 58.390625 -10.015625 55.828125 -7.453125 C 53.273438 -4.898438 50.238281 -2.894531 46.71875 -1.4375 C 43.207031 0.0195312 39.460938 0.75 35.484375 0.75 C 32.785156 0.75 30.140625 0.378906 27.546875 -0.359375 C 24.953125 -1.109375 22.554688 -2.195312 20.359375 -3.625 L 20.359375 22.265625 Z M 33.5625 -43.796875 C 30.9375 -43.796875 28.484375 -43.351562 26.203125 -42.46875 C 23.929688 -41.582031 21.984375 -40.285156 20.359375 -38.578125 L 20.359375 -16.734375 C 21.921875 -15.171875 23.851562 -13.925781 26.15625 -13 C 28.46875 -12.070312 30.9375 -11.609375 33.5625 -11.609375 C 38.113281 -11.609375 41.953125 -13.15625 45.078125 -16.25 C 48.203125 -19.34375 49.765625 -23.160156 49.765625 -27.703125 C 49.765625 -32.253906 48.179688 -36.070312 45.015625 -39.15625 C 41.859375 -42.25 38.039062 -43.796875 33.5625 -43.796875 Z M 33.5625 -43.796875 "/></g></g></g><g fill="#000000" fill-opacity="1"><g transform="translate(345.030551, 217.974036)"><g><path d="M 3.203125 -27.703125 C 3.203125 -31.753906 3.960938 -35.535156 5.484375 -39.046875 C 7.015625 -42.566406 9.109375 -45.625 11.765625 -48.21875 C 14.429688 -50.8125 17.578125 -52.851562 21.203125 -54.34375 C 24.828125 -55.832031 28.703125 -56.578125 32.828125 -56.578125 C 36.941406 -56.578125 40.8125 -55.832031 44.4375 -54.34375 C 48.0625 -52.851562 51.203125 -50.8125 53.859375 -48.21875 C 56.523438 -45.625 58.625 -42.566406 60.15625 -39.046875 C 61.6875 -35.535156 62.453125 -31.753906 62.453125 -27.703125 C 62.453125 -23.648438 61.6875 -19.863281 60.15625 -16.34375 C 58.625 -12.832031 56.523438 -9.796875 53.859375 -7.234375 C 51.203125 -4.679688 48.0625 -2.660156 44.4375 -1.171875 C 40.8125 0.316406 36.941406 1.0625 32.828125 1.0625 C 28.703125 1.0625 24.828125 0.316406 21.203125 -1.171875 C 17.578125 -2.660156 14.429688 -4.679688 11.765625 -7.234375 C 9.109375 -9.796875 7.015625 -12.832031 5.484375 -16.34375 C 3.960938 -19.863281 3.203125 -23.648438 3.203125 -27.703125 Z M 32.828125 -11.609375 C 37.085938 -11.609375 40.707031 -13.171875 43.6875 -16.296875 C 46.675781 -19.429688 48.171875 -23.234375 48.171875 -27.703125 C 48.171875 -32.253906 46.675781 -36.09375 43.6875 -39.21875 C 40.707031 -42.34375 37.085938 -43.90625 32.828125 -43.90625 C 28.554688 -43.90625 24.925781 -42.34375 21.9375 -39.21875 C 18.957031 -36.09375 17.46875 -32.253906 17.46875 -27.703125 C 17.46875 -23.234375 18.957031 -19.429688 21.9375 -16.296875 C 24.925781 -13.171875 28.554688 -11.609375 32.828125 -11.609375 Z M 32.828125 -11.609375 "/></g></g></g><g fill="#000000" fill-opacity="1"><g transform="translate(410.668779, 217.974036)"><g><path d="M 13.328125 -15.671875 L 13.328125 -43.265625 L 1.921875 -43.265625 L 1.921875 -55.515625 L 13.328125 -55.515625 L 13.328125 -69.6875 L 27.921875 -73 L 27.921875 -55.515625 L 43.6875 -55.515625 L 43.6875 -43.265625 L 27.921875 -43.265625 L 27.921875 -18.65625 C 27.921875 -16.019531 28.488281 -14.171875 29.625 -13.109375 C 30.757812 -12.046875 32.75 -11.515625 35.59375 -11.515625 C 36.9375 -11.515625 38.210938 -11.601562 39.421875 -11.78125 C 40.628906 -11.957031 41.945312 -12.289062 43.375 -12.78125 L 43.375 -0.859375 C 41.8125 -0.359375 39.925781 0.0507812 37.71875 0.375 C 35.519531 0.695312 33.640625 0.859375 32.078125 0.859375 C 25.890625 0.859375 21.21875 -0.539062 18.0625 -3.34375 C 14.90625 -6.15625 13.328125 -10.265625 13.328125 -15.671875 Z M 13.328125 -15.671875 "/></g></g></g><g fill="#000000" fill-opacity="1"><g transform="translate(455.859588, 217.974036)"><g/></g></g><g fill="#000000" fill-opacity="1"><g transform="translate(477.277258, 217.974036)"><g/></g></g><g fill="#000000" fill-opacity="1"><g transform="translate(498.74121, 217.974036)"><g><path d="M 71.609375 -32.28125 C 71.609375 -27.238281 70.828125 -22.640625 69.265625 -18.484375 C 67.703125 -14.328125 65.484375 -10.8125 62.609375 -7.9375 C 59.734375 -5.0625 56.25 -2.84375 52.15625 -1.28125 C 48.070312 0.28125 43.546875 1.0625 38.578125 1.0625 C 33.535156 1.0625 28.96875 0.28125 24.875 -1.28125 C 20.789062 -2.84375 17.328125 -5.0625 14.484375 -7.9375 C 11.648438 -10.8125 9.453125 -14.304688 7.890625 -18.421875 C 6.328125 -22.546875 5.546875 -27.164062 5.546875 -32.28125 L 5.546875 -74.59375 L 21 -74.59375 L 21 -32.28125 C 21 -26.53125 22.613281 -21.914062 25.84375 -18.4375 C 29.070312 -14.957031 33.351562 -13.21875 38.6875 -13.21875 C 44.007812 -13.21875 48.25 -14.957031 51.40625 -18.4375 C 54.570312 -21.914062 56.15625 -26.53125 56.15625 -32.28125 L 56.15625 -74.59375 L 71.609375 -74.59375 Z M 71.609375 -32.28125 "/></g></g></g><g fill="#000000" fill-opacity="1"><g transform="translate(575.993988, 217.974036)"><g><path d="M 5.75 22.265625 L 5.75 -55.515625 L 20.140625 -55.515625 L 20.140625 -50.9375 C 22.335938 -52.707031 24.785156 -54.035156 27.484375 -54.921875 C 30.191406 -55.816406 33 -56.265625 35.90625 -56.265625 C 39.8125 -56.265625 43.488281 -55.519531 46.9375 -54.03125 C 50.382812 -52.539062 53.382812 -50.515625 55.9375 -47.953125 C 58.5 -45.390625 60.507812 -42.367188 61.96875 -38.890625 C 63.425781 -35.410156 64.15625 -31.679688 64.15625 -27.703125 C 64.15625 -23.722656 63.40625 -19.992188 61.90625 -16.515625 C 60.414062 -13.035156 58.390625 -10.015625 55.828125 -7.453125 C 53.273438 -4.898438 50.238281 -2.894531 46.71875 -1.4375 C 43.207031 0.0195312 39.460938 0.75 35.484375 0.75 C 32.785156 0.75 30.140625 0.378906 27.546875 -0.359375 C 24.953125 -1.109375 22.554688 -2.195312 20.359375 -3.625 L 20.359375 22.265625 Z M 33.5625 -43.796875 C 30.9375 -43.796875 28.484375 -43.351562 26.203125 -42.46875 C 23.929688 -41.582031 21.984375 -40.285156 20.359375 -38.578125 L 20.359375 -16.734375 C 21.921875 -15.171875 23.851562 -13.925781 26.15625 -13 C 28.46875 -12.070312 30.9375 -11.609375 33.5625 -11.609375 C 38.113281 -11.609375 41.953125 -13.15625 45.078125 -16.25 C 48.203125 -19.34375 49.765625 -23.160156 49.765625 -27.703125 C 49.765625 -32.253906 48.179688 -36.070312 45.015625 -39.15625 C 41.859375 -42.25 38.039062 -43.796875 33.5625 -43.796875 Z M 33.5625 -43.796875 "/></g></g></g><g fill="#000000" fill-opacity="1"><g transform="translate(643.337104, 217.974036)"><g><path d="M 47.203125 0 L 47.203125 -4.578125 C 45.003906 -2.804688 42.554688 -1.472656 39.859375 -0.578125 C 37.160156 0.304688 34.351562 0.75 31.4375 0.75 C 27.53125 0.75 23.851562 0.00390625 20.40625 -1.484375 C 16.957031 -2.984375 13.953125 -5.007812 11.390625 -7.5625 C 8.835938 -10.125 6.832031 -13.144531 5.375 -16.625 C 3.925781 -20.101562 3.203125 -23.832031 3.203125 -27.8125 C 3.203125 -31.789062 3.945312 -35.519531 5.4375 -39 C 6.925781 -42.476562 8.945312 -45.492188 11.5 -48.046875 C 14.0625 -50.609375 17.097656 -52.617188 20.609375 -54.078125 C 24.128906 -55.535156 27.878906 -56.265625 31.859375 -56.265625 C 34.554688 -56.265625 37.203125 -55.890625 39.796875 -55.140625 C 42.390625 -54.398438 44.789062 -53.316406 47 -51.890625 L 47 -74.59375 L 61.59375 -77.796875 L 61.59375 0 Z M 17.578125 -27.8125 C 17.578125 -23.332031 19.140625 -19.53125 22.265625 -16.40625 C 25.390625 -13.28125 29.226562 -11.71875 33.78125 -11.71875 C 36.476562 -11.71875 38.945312 -12.179688 41.1875 -13.109375 C 43.425781 -14.035156 45.363281 -15.347656 47 -17.046875 L 47 -38.6875 C 45.4375 -40.320312 43.5 -41.597656 41.1875 -42.515625 C 38.875 -43.441406 36.40625 -43.90625 33.78125 -43.90625 C 29.164062 -43.90625 25.3125 -42.359375 22.21875 -39.265625 C 19.125 -36.179688 17.578125 -32.363281 17.578125 -27.8125 Z M 17.578125 -27.8125 "/></g></g></g><g fill="#000000" fill-opacity="1"><g transform="translate(710.680219, 217.974036)"><g><path d="M 23.34375 0.953125 C 17.375 0.953125 12.503906 -0.625 8.734375 -3.78125 C 4.972656 -6.945312 3.09375 -11.050781 3.09375 -16.09375 C 3.09375 -21.351562 5.113281 -25.472656 9.15625 -28.453125 C 13.207031 -31.429688 18.785156 -32.921875 25.890625 -32.921875 C 28.171875 -32.921875 30.445312 -32.742188 32.71875 -32.390625 C 34.988281 -32.035156 37.222656 -31.503906 39.421875 -30.796875 L 39.421875 -34.734375 C 39.421875 -37.929688 38.425781 -40.347656 36.4375 -41.984375 C 34.445312 -43.617188 31.535156 -44.4375 27.703125 -44.4375 C 25.359375 -44.4375 22.816406 -44.0625 20.078125 -43.3125 C 17.347656 -42.570312 14.242188 -41.421875 10.765625 -39.859375 L 5.4375 -50.625 C 9.769531 -52.601562 13.976562 -54.085938 18.0625 -55.078125 C 22.144531 -56.078125 26.175781 -56.578125 30.15625 -56.578125 C 37.613281 -56.578125 43.421875 -54.785156 47.578125 -51.203125 C 51.734375 -47.617188 53.8125 -42.554688 53.8125 -36.015625 L 53.8125 0 L 39.421875 0 L 39.421875 -3.84375 C 37.078125 -2.207031 34.609375 -1 32.015625 -0.21875 C 29.421875 0.5625 26.53125 0.953125 23.34375 0.953125 Z M 17.046875 -16.40625 C 17.046875 -14.28125 17.96875 -12.59375 19.8125 -11.34375 C 21.664062 -10.101562 24.117188 -9.484375 27.171875 -9.484375 C 29.585938 -9.484375 31.804688 -9.785156 33.828125 -10.390625 C 35.859375 -10.992188 37.722656 -11.863281 39.421875 -13 L 39.421875 -21.3125 C 37.648438 -22.019531 35.785156 -22.535156 33.828125 -22.859375 C 31.878906 -23.179688 29.835938 -23.34375 27.703125 -23.34375 C 24.367188 -23.34375 21.757812 -22.71875 19.875 -21.46875 C 17.988281 -20.226562 17.046875 -18.539062 17.046875 -16.40625 Z M 17.046875 -16.40625 "/></g></g></g><g fill="#000000" fill-opacity="1"><g transform="translate(769.818513, 217.974036)"><g><path d="M 13.328125 -15.671875 L 13.328125 -43.265625 L 1.921875 -43.265625 L 1.921875 -55.515625 L 13.328125 -55.515625 L 13.328125 -69.6875 L 27.921875 -73 L 27.921875 -55.515625 L 43.6875 -55.515625 L 43.6875 -43.265625 L 27.921875 -43.265625 L 27.921875 -18.65625 C 27.921875 -16.019531 28.488281 -14.171875 29.625 -13.109375 C 30.757812 -12.046875 32.75 -11.515625 35.59375 -11.515625 C 36.9375 -11.515625 38.210938 -11.601562 39.421875 -11.78125 C 40.628906 -11.957031 41.945312 -12.289062 43.375 -12.78125 L 43.375 -0.859375 C 41.8125 -0.359375 39.925781 0.0507812 37.71875 0.375 C 35.519531 0.695312 33.640625 0.859375 32.078125 0.859375 C 25.890625 0.859375 21.21875 -0.539062 18.0625 -3.34375 C 14.90625 -6.15625 13.328125 -10.265625 13.328125 -15.671875 Z M 13.328125 -15.671875 "/></g></g></g><g fill="#000000" fill-opacity="1"><g transform="translate(814.998081, 217.974036)"><g><path d="M 55.515625 -6.921875 C 52.109375 -4.148438 48.609375 -2.125 45.015625 -0.84375 C 41.429688 0.425781 37.4375 1.0625 33.03125 1.0625 C 28.84375 1.0625 24.914062 0.316406 21.25 -1.171875 C 17.59375 -2.660156 14.429688 -4.679688 11.765625 -7.234375 C 9.109375 -9.796875 7.015625 -12.832031 5.484375 -16.34375 C 3.960938 -19.863281 3.203125 -23.648438 3.203125 -27.703125 C 3.203125 -31.679688 3.925781 -35.425781 5.375 -38.9375 C 6.832031 -42.457031 8.835938 -45.515625 11.390625 -48.109375 C 13.953125 -50.703125 16.988281 -52.742188 20.5 -54.234375 C 24.019531 -55.734375 27.769531 -56.484375 31.75 -56.484375 C 35.65625 -56.484375 39.296875 -55.71875 42.671875 -54.1875 C 46.046875 -52.65625 48.957031 -50.578125 51.40625 -47.953125 C 53.863281 -45.328125 55.785156 -42.179688 57.171875 -38.515625 C 58.554688 -34.859375 59.25 -30.898438 59.25 -26.640625 L 59.25 -22.796875 L 17.90625 -22.796875 C 18.894531 -19.316406 20.8125 -16.507812 23.65625 -14.375 C 26.5 -12.25 29.835938 -11.1875 33.671875 -11.1875 C 36.085938 -11.1875 38.359375 -11.578125 40.484375 -12.359375 C 42.617188 -13.140625 44.429688 -14.242188 45.921875 -15.671875 Z M 31.4375 -44.4375 C 28.09375 -44.4375 25.210938 -43.421875 22.796875 -41.390625 C 20.390625 -39.367188 18.722656 -36.65625 17.796875 -33.25 L 44.96875 -33.25 C 44.039062 -36.519531 42.351562 -39.203125 39.90625 -41.296875 C 37.457031 -43.390625 34.632812 -44.4375 31.4375 -44.4375 Z M 31.4375 -44.4375 "/></g></g></g><g fill="#000000" fill-opacity="1"><g transform="translate(877.439612, 217.974036)"><g><path d="M 1.0625 -6.609375 L 8.3125 -16.296875 C 11.582031 -14.171875 14.671875 -12.59375 17.578125 -11.5625 C 20.492188 -10.53125 23.410156 -10.015625 26.328125 -10.015625 C 29.585938 -10.015625 32.191406 -10.546875 34.140625 -11.609375 C 36.097656 -12.679688 37.078125 -14.101562 37.078125 -15.875 C 37.078125 -17.300781 36.523438 -18.4375 35.421875 -19.28125 C 34.328125 -20.132812 32.570312 -20.738281 30.15625 -21.09375 L 19.5 -22.703125 C 14.03125 -23.554688 9.859375 -25.332031 6.984375 -28.03125 C 4.109375 -30.726562 2.671875 -34.3125 2.671875 -38.78125 C 2.671875 -44.113281 4.765625 -48.378906 8.953125 -51.578125 C 13.140625 -54.773438 18.75 -56.375 25.78125 -56.375 C 29.832031 -56.375 33.773438 -55.785156 37.609375 -54.609375 C 41.453125 -53.441406 45.113281 -51.71875 48.59375 -49.4375 L 41.5625 -40.0625 C 38.507812 -41.84375 35.597656 -43.175781 32.828125 -44.0625 C 30.054688 -44.945312 27.25 -45.390625 24.40625 -45.390625 C 21.769531 -45.390625 19.65625 -44.890625 18.0625 -43.890625 C 16.46875 -42.898438 15.671875 -41.59375 15.671875 -39.96875 C 15.671875 -38.46875 16.253906 -37.304688 17.421875 -36.484375 C 18.597656 -35.671875 20.535156 -35.085938 23.234375 -34.734375 L 33.890625 -33.140625 C 39.285156 -32.359375 43.457031 -30.582031 46.40625 -27.8125 C 49.351562 -25.039062 50.828125 -21.523438 50.828125 -17.265625 C 50.828125 -14.640625 50.203125 -12.207031 48.953125 -9.96875 C 47.710938 -7.726562 46.023438 -5.789062 43.890625 -4.15625 C 41.765625 -2.519531 39.207031 -1.238281 36.21875 -0.3125 C 33.238281 0.601562 30.007812 1.0625 26.53125 1.0625 C 21.488281 1.0625 16.765625 0.40625 12.359375 -0.90625 C 7.953125 -2.21875 4.1875 -4.117188 1.0625 -6.609375 Z M 1.0625 -6.609375 "/></g></g></g></svg>